<svg width="17" height="20" viewBox="0 0 17 20" fill="none" xmlns="http://www.w3.org/2000/svg">
<circle cx="15" cy="19" r="1"/>
<circle cx="15" cy="1" r="0.75" stroke-width="0.5"/>
<path d="M15 19C7.8203 19 2 18.7097 2 10C2 1.87097 7.8203 1 15 1" stroke-width="0.5"/>
<circle cx="2.2739" cy="10.2184" r="0.75" transform="rotate(-123.025 2.2739 10.2184)" stroke-width="0.5"/>
<circle cx="8.27781" cy="15.5072" r="0.75" transform="rotate(-123.025 8.27781 15.5072)" stroke-width="0.5"/>
<path d="M8.20474 15.4267C9.53449 13.8264 12.6472 10.6096 12.8699 10.3416C13.1482 10.0067 13.6008 7.92924 11.4661 6.1554C9.33142 4.38156 7.44419 4.40344 6.71691 5.22881C6.17949 5.83872 3.58975 8.77776 2.45215 10.0688" stroke-width="0.5"/>
</svg>
