<svg width="61" height="19" viewBox="0 0 61 19" fill="none" xmlns="http://www.w3.org/2000/svg">
<path fill-rule="evenodd" clip-rule="evenodd" d="M59.5549 5.31226C60.1526 5.31226 60.4261 5.46287 60.7823 5.8959C61.3036 6.53184 61.7886 7.57779 61.4646 9.96882C60.9474 13.7258 58.5025 18.4577 53.9869 18.623C53.6267 18.6334 53.1356 18.5644 52.707 18.4723C49.5439 17.7967 49.8033 13.9748 50.5862 11.5273C50.8395 10.7374 51.2305 9.99097 51.6171 9.25281C51.7466 9.00568 51.8756 8.75947 51.9987 8.51287L43.5794 17.9326C43.0241 18.5916 42.6458 18.4954 42.0764 18.1167L41.4827 17.6963C41.4817 17.6953 41.4812 17.6944 41.4807 17.6937C41.4802 17.6927 41.4797 17.6921 41.4786 17.6921C40.5287 17.0206 40.386 16.8804 40.722 15.7843L42.3942 11.4959L35.8925 17.9264C35.2285 18.5769 34.9991 18.4995 34.4819 18.1335C33.9627 17.7674 33.685 17.5707 33.2485 17.2611C32.8561 16.9829 32.7856 16.665 33.0412 15.7885L35.659 7.68865L27.4349 17.5728C26.4931 18.7673 26.1812 18.5707 24.9679 17.7088C23.7545 16.849 23.658 16.6545 24.2274 14.8094V14.8074L27.7972 3.21829H12.693C12.204 3.22037 11.9485 2.97981 11.713 2.49868L11.0329 1.05945C10.8196 0.620159 10.8679 0.358672 11.2804 0.356581H45.7325C46.2216 0.354489 46.4772 0.601331 46.7126 1.08247L47.3947 2.52169C47.6079 2.96307 47.5576 3.21619 47.1471 3.21829H29.0709L30.1675 3.83331C30.6767 4.21611 30.8618 4.54664 30.5761 5.47335L27.7529 14.6128L35.0151 6.1553C35.796 5.21186 36.2649 4.7872 37.2086 5.45242L37.247 5.47947C38.1744 6.13301 38.9711 6.69437 38.6573 7.71166L36.9994 12.9665L43.3762 6.7724L43.3903 6.74102C43.65 5.95029 44.014 5.6616 44.7626 6.18877L44.8814 6.27245C44.9181 6.29843 44.954 6.32383 44.9891 6.34869C46.0349 7.08869 46.418 7.35973 46.0384 8.59027L45.7305 9.4019L44.5856 13.2615L51.371 5.84151C52.1879 4.99849 53.1618 4.94829 53.8823 5.43778L54.9246 6.25152C55.6632 6.83726 55.8985 7.54223 55.4459 8.34968C55.3604 8.50241 55.2642 8.67099 55.1612 8.85136C54.7184 9.62709 54.1511 10.6208 53.7837 11.5085C52.7232 14.0689 52.687 15.5479 53.5885 16.052C54.4317 16.5248 55.6269 15.6504 56.3736 14.7404C57.2167 13.7133 57.587 13.023 58.1221 11.5252C58.6374 10.0818 58.7058 8.40617 58.5628 8.28694L57.0476 7.21588C56.6533 6.93556 56.7698 6.65317 57.2489 6.37286L58.418 5.64488C58.418 5.64488 58.8787 5.31226 59.5549 5.31226ZM20.6374 5.29324C20.7983 5.356 21.4182 5.70115 21.8387 5.98984C22.2995 6.30571 22.5592 6.72826 22.5551 7.77212L22.4806 15.6146L22.4625 16.2987C22.4243 16.853 22.2714 17.1835 21.6234 17.5643C21.6103 17.572 21.3016 17.7531 20.9709 17.9472C20.5906 18.1703 20.1811 18.4106 20.1585 18.424C19.4823 18.8068 19.1704 18.7232 18.5004 18.424L17.6431 18.0517C17.0093 17.7797 16.6994 17.0789 16.6994 16.4848V15.1481C16.7175 14.3574 17.2769 14.5917 17.7498 14.8092L19.0316 15.3845L19.0859 7.55248L10.5659 17.581C10.0568 18.2253 9.68659 18.5516 9.09901 18.3822C8.96084 18.3427 8.43874 17.9626 8.19557 17.7856C8.15542 17.7564 8.12287 17.7327 8.10091 17.717C6.88751 16.8572 6.79093 16.6627 7.3604 14.8176V14.8155L8.2961 12.2927L2.26933 18.1081L2.26788 18.1096C1.94481 18.4246 1.75935 18.6054 1.17667 18.1939L-0.256072 17.1814C-0.668588 16.8907 -0.664564 16.4618 -0.479434 15.8573L2.0359 8.22815L0.520666 7.1571C0.126261 6.87679 0.240961 6.59229 0.721894 6.31409L2.27538 5.38946C2.80259 5.08404 3.197 5.02757 3.66787 5.35808L4.93761 6.25551C5.48092 6.64879 5.51716 6.96256 5.33202 7.56085L3.49078 12.9935L9.83549 7.2638L10.4392 5.93753C10.6967 5.1468 11.063 4.85811 11.8116 5.38528L11.9303 5.46896C13.0572 6.26807 13.3489 6.5149 12.9586 7.78678L12.9525 7.8056L12.9626 7.80768L11.6325 11.707L10.8859 14.6251L18.1482 6.30153C18.4682 5.91663 18.7338 5.61957 19.0034 5.44595C19.4703 5.10915 19.9613 5.02549 20.6374 5.29324Z" fill="black"/>
</svg>
