<svg width="35" height="10" viewBox="0 0 35 10" fill="none" xmlns="http://www.w3.org/2000/svg">
<path d="M33.3981 2.70446C33.725 2.70446 33.8746 2.78665 34.0694 3.02297C34.3544 3.37002 34.6197 3.94082 34.4425 5.24567C34.1596 7.29598 32.8226 9.8783 30.353 9.96848C30.1559 9.97419 29.8874 9.93651 29.653 9.88629C27.9231 9.51754 28.065 7.43183 28.4931 6.09617C28.6316 5.66511 28.8455 5.25776 29.057 4.85493C29.1278 4.72006 29.1983 4.5857 29.2656 4.45112L24.6611 9.59175C24.3574 9.95135 24.1505 9.89884 23.8391 9.69221L23.5144 9.46275L23.5134 9.46145L23.5122 9.46046C22.9927 9.09402 22.9147 9.01753 23.0984 8.41933L24.0129 6.07904L20.4572 9.58833C20.0941 9.94336 19.9686 9.90113 19.6857 9.70135C19.4018 9.50157 19.2499 9.39425 19.0112 9.2253C18.7966 9.07346 18.758 8.89994 18.8978 8.42161L20.3295 4.00132L15.8317 9.3954C15.3167 10.0472 15.1461 9.93994 14.4825 9.4696C13.8189 9.00041 13.7662 8.89424 14.0776 7.88734V7.8862L16.0299 1.56172H7.76943C7.50201 1.56286 7.36224 1.43158 7.23348 1.16901L6.86151 0.383585C6.74485 0.143849 6.77126 0.0011488 6.99687 7.19559e-06H25.8386C26.1061 -0.00113441 26.2459 0.133574 26.3747 0.396143L26.7477 1.18157C26.8643 1.42244 26.8368 1.56058 26.6123 1.56172H16.7265L17.3262 1.89735C17.6047 2.10626 17.7059 2.28664 17.5497 2.79237L16.0057 7.78003L19.9773 3.16453C20.4044 2.64967 20.6608 2.41792 21.1769 2.78095L21.1979 2.79571C21.7052 3.15237 22.1408 3.45872 21.9693 4.01388L21.0625 6.88158L24.55 3.5013L24.5577 3.48417C24.6997 3.05265 24.8988 2.89511 25.3082 3.18279L25.3732 3.22846C25.3932 3.24264 25.4129 3.2565 25.4321 3.27007C26.0041 3.67391 26.2135 3.82182 26.0059 4.49336L25.8376 4.93629L25.2114 7.04256L28.9223 2.99329C29.3691 2.53323 29.9017 2.50583 30.2957 2.77296L30.8658 3.21704C31.2697 3.5367 31.3984 3.92142 31.1509 4.36207C31.1041 4.44542 31.0515 4.53744 30.9952 4.63589C30.753 5.05921 30.4428 5.60148 30.2418 6.0859C29.6619 7.48321 29.6421 8.29033 30.1351 8.56545C30.5962 8.82345 31.2499 8.34626 31.6582 7.84967C32.1193 7.28914 32.3218 6.91241 32.6145 6.09502C32.8963 5.30732 32.9337 4.39289 32.8555 4.32783L32.0268 3.74332C31.8112 3.59034 31.8749 3.43623 32.1369 3.28326L32.7763 2.88598C32.7763 2.88598 33.0283 2.70446 33.3981 2.70446Z" fill="black"/>
<path d="M12.1145 2.69416C12.2025 2.7284 12.5415 2.91676 12.7715 3.07431C13.0235 3.24669 13.1655 3.47729 13.1633 4.04695L13.1225 8.32682L13.1126 8.70013C13.0917 9.00264 13.0081 9.18301 12.6537 9.39079C12.6465 9.39504 12.4778 9.49382 12.297 9.59968C12.089 9.72149 11.8649 9.85266 11.8525 9.85999C11.4828 10.0689 11.3122 10.0232 10.9457 9.85999L10.4769 9.65679C10.1302 9.50837 9.96077 9.12594 9.96077 8.80173V8.07224C9.97068 7.64072 10.2766 7.76858 10.5352 7.8873L11.2363 8.20124L11.266 3.92709L6.60642 9.39992C6.32799 9.75154 6.1255 9.92962 5.80415 9.83716C5.72859 9.81561 5.44307 9.60821 5.31008 9.5116C5.28811 9.49564 5.27031 9.48271 5.25829 9.47413C4.59469 9.00493 4.54187 8.89876 4.85331 7.89187V7.89072L5.36504 6.51395L2.06902 9.68761L2.06822 9.68838C1.89154 9.86029 1.79011 9.95897 1.47144 9.73441L0.68788 9.18188C0.462276 9.0232 0.464477 8.78917 0.565723 8.45925L1.94135 4.29582L1.11268 3.71132C0.896977 3.55834 0.959706 3.40308 1.22273 3.25126L2.07233 2.74667C2.36065 2.57999 2.57636 2.54917 2.83387 2.72954L3.52829 3.21929C3.82543 3.43391 3.84525 3.60515 3.74399 3.93165L2.73702 6.89639L6.20693 3.76954L6.53709 3.04576C6.67795 2.61424 6.87825 2.45669 7.28763 2.74438L7.35256 2.79005C7.96885 3.22615 8.12843 3.36085 7.91493 4.05495L7.91162 4.06522L7.91713 4.06636L7.18969 6.1943L6.7814 7.78684L10.7531 3.24441C10.9281 3.03435 11.0734 2.87224 11.2209 2.77749C11.4762 2.59369 11.7447 2.54803 12.1145 2.69416Z" fill="black"/>
</svg>
